{"asset":{"version":"2.0","generator":"Blockbench 5.0.6 glTF exporter"},"scenes":[{"nodes":[2,4,6],"name":"blockbench_export"}],"scene":0,"nodes":[{"translation":[-0.280330625,1.00643375,-0.00919125],"name":"muzzle","mesh":0},{"translation":[0.008958125,0.475,-0.014583125],"name":"body","mesh":1},{"rotation":[0,0.7071067811865475,0,0.7071067811865476],"name":"root","children":[0,1]},{"translation":[-0.083333125,0.270833125,0.65625],"name":"wheel","mesh":2},{"rotation":[0,0.7071067811865475,0,0.7071067811865476],"name":"wheel_left","children":[3]},{"translation":[-0.083333125,0.270833125,-0.65625],"name":"wheel","mesh":3},{"rotation":[0,0.7071067811865475,0,0.7071067811865476],"name":"wheel_right","children":[5]}],"bufferViews":[{"buffer":0,"byteOffset":0,"byteLength":3168,"target":34962,"byteStride":12},{"buffer":0,"byteOffset":3168,"byteLength":3168,"target":34962,"byteStride":12},{"buffer":0,"byteOffset":6336,"byteLength":2112,"target":34962,"byteStride":8},{"buffer":0,"byteOffset":8448,"byteLength":792,"target":34963},{"buffer":0,"byteOffset":9240,"byteLength":2784,"target":34962,"byteStride":12},{"buffer":0,"byteOffset":12024,"byteLength":2784,"target":34962,"byteStride":12},{"buffer":0,"byteOffset":14808,"byteLength":1856,"target":34962,"byteStride":8},{"buffer":0,"byteOffset":16664,"byteLength":696,"target":34963},{"buffer":0,"byteOffset":17360,"byteLength":480,"target":34962,"byteStride":12},{"buffer":0,"byteOffset":17840,"byteLength":480,"target":34962,"byteStride":12},{"buffer":0,"byteOffset":18320,"byteLength":320,"target":34962,"byteStride":8},{"buffer":0,"byteOffset":18640,"byteLength":120,"target":34963},{"buffer":0,"byteOffset":18760,"byteLength":480,"target":34962,"byteStride":12},{"buffer":0,"byteOffset":19240,"byteLength":480,"target":34962,"byteStride":12},{"buffer":0,"byteOffset":19720,"byteLength":320,"target":34962,"byteStride":8},{"buffer":0,"byteOffset":20040,"byteLength":120,"target":34963}],"buffers":[{"byteLength":20160,"uri":"data:application/octet-stream;base64,"}],"accessors":[{"bufferView":0,"componentType":5126,"count":264,"max":[0.7803305983543396,0.36856624484062195,0.44669124484062195],"min":[-0.6571694016456604,-0.25643375515937805,-0.42830875515937805],"type":"VEC3"},{"bufferView":1,"componentType":5126,"count":264,"max":[1,1,1],"min":[-1,-1,-1],"type":"VEC3"},{"bufferView":2,"componentType":5126,"count":264,"max":[0.4921875,0.5],"min":[0,0],"type":"VEC2"},{"bufferView":3,"componentType":5123,"count":396,"max":[263],"min":[0],"type":"SCALAR"},{"bufferView":4,"componentType":5126,"count":232,"max":[0.4910418689250946,0.2750000059604645,0.5145831108093262],"min":[-0.746458113193512,-0.2874999940395355,-0.48541688919067383],"type":"VEC3"},{"bufferView":5,"componentType":5126,"count":232,"max":[1,1,1],"min":[-1,-1,-1],"type":"VEC3"},{"bufferView":6,"componentType":5126,"count":232,"max":[0.546875,0.4609375],"min":[0,0],"type":"VEC2"},{"bufferView":7,"componentType":5123,"count":348,"max":[231],"min":[0],"type":"SCALAR"},{"bufferView":8,"componentType":5126,"count":40,"max":[0.6458331346511841,0.2916668653488159,0.15625],"min":[-0.6666668653488159,-0.2708331346511841,-0.15625],"type":"VEC3"},{"bufferView":9,"componentType":5126,"count":40,"max":[0.9805806875228882,1,1],"min":[-0.9805806875228882,-1,-1],"type":"VEC3"},{"bufferView":10,"componentType":5126,"count":40,"max":[0.4921875,0.5],"min":[0.046875,0.0703125],"type":"VEC2"},{"bufferView":11,"componentType":5123,"count":60,"max":[39],"min":[0],"type":"SCALAR"},{"bufferView":12,"componentType":5126,"count":40,"max":[0.6458331346511841,0.2916668653488159,0.15625],"min":[-0.6666668653488159,-0.2708331346511841,-0.15625],"type":"VEC3"},{"bufferView":13,"componentType":5126,"count":40,"max":[0.9805806875228882,1,1],"min":[-0.9805806875228882,-1,-1],"type":"VEC3"},{"bufferView":14,"componentType":5126,"count":40,"max":[0.4921875,0.5],"min":[0.046875,0.0703125],"type":"VEC2"},{"bufferView":15,"componentType":5123,"count":60,"max":[39],"min":[0],"type":"SCALAR"}],"materials":[{"pbrMetallicRoughness":{"metallicFactor":0,"roughnessFactor":1,"baseColorTexture":{"index":0}},"alphaMode":"MASK","alphaCutoff":0.05,"doubleSided":true}],"textures":[{"sampler":0,"source":0,"name":"tankTexture.png"}],"samplers":[{"magFilter":9728,"minFilter":9728,"wrapS":33071,"wrapT":33071}],"images":[{"mimeType":"image/png","uri":"data:image/png;base64,"}],"meshes":[{"primitives":[{"mode":4,"attributes":{"POSITION":0,"NORMAL":1,"TEXCOORD_0":2},"indices":3,"material":0}]},{"primitives":[{"mode":4,"attributes":{"POSITION":4,"NORMAL":5,"TEXCOORD_0":6},"indices":7,"material":0}]},{"primitives":[{"mode":4,"attributes":{"POSITION":8,"NORMAL":9,"TEXCOORD_0":10},"indices":11,"material":0}]},{"primitives":[{"mode":4,"attributes":{"POSITION":12,"NORMAL":13,"TEXCOORD_0":14},"indices":15,"material":0}]}]}